<?xml version="1.0" encoding="UTF-8"?><svg id="Layer_2" xmlns="http://www.w3.org/2000/svg" viewBox="0 0 922.27 934"><defs><style>.cls-1{fill:#ed1c24;}.cls-2{fill:#fff;}</style></defs><g id="Layer_2-2"><rect class="cls-2" x="164.13" y="375.17" width="157.19" height="157.19"/><rect class="cls-2" x="382.54" y="375.17" width="157.19" height="157.19"/><rect class="cls-2" x="600.95" y="375.17" width="157.19" height="157.19"/><rect class="cls-2" x="164.13" y="607.64" width="157.19" height="157.19"/><rect class="cls-2" x="382.54" y="607.64" width="157.19" height="157.19"/><path class="cls-2" d="M843.6,108h-104.47v48c0,29.22-23.77,53-53,53s-53-23.78-53-53v-48h-344v48c0,29.22-23.77,53-53,53s-53-23.78-53-53v-48h-104.47C35.22,108,0,143.22,0,186.67v668.66c0,43.45,35.22,78.67,78.66,78.67h764.94c43.45,0,78.67-35.22,78.67-78.67V186.67c0-43.45-35.22-78.67-78.67-78.67ZM854.81,801.76c0,36.58-29.66,66.24-66.24,66.24H133.7c-36.59,0-66.25-29.66-66.25-66.24V272h787.36v529.76Z"/><path class="cls-1" d="M236.13,189c-18.23,0-33-11.98-33-26.77V26.77c0-14.78,14.77-26.77,33-26.77s33,11.98,33,26.77v135.46c0,14.78-14.77,26.77-33,26.77h0Z"/><path class="cls-1" d="M686.13,189c-18.23,0-33-11.98-33-26.77V26.77c0-14.78,14.77-26.77,33-26.77s33,11.98,33,26.77v135.46c0,14.78-14.77,26.77-33,26.77h0Z"/></g></svg>